<svg width="44" height="46" viewBox="0 0 44 46" fill="none" xmlns="http://www.w3.org/2000/svg">
<path d="M21.2913 9.89354C25.7981 9.89354 29.4517 7.76689 29.4517 5.14355C29.4517 2.5202 25.7981 0.393555 21.2913 0.393555C16.7844 0.393555 13.1309 2.5202 13.1309 5.14355C13.1309 7.76689 16.7844 9.89354 21.2913 9.89354Z" fill="white"/>
<path d="M21.2913 45.6606C25.7981 45.6606 29.4517 43.534 29.4517 40.9106C29.4517 38.2873 25.7981 36.1606 21.2913 36.1606C16.7844 36.1606 13.1309 38.2873 13.1309 40.9106C13.1309 43.534 16.7844 45.6606 21.2913 45.6606Z" fill="white"/>
<path d="M1.69079 11.7105C3.94645 7.80732 7.61094 5.70562 9.88969 7.02206C12.1684 8.33851 12.1992 12.5573 9.88969 16.4605C7.58014 20.3636 3.96953 22.4653 1.69848 21.1566C-0.572583 19.8478 -0.55717 15.6136 1.69079 11.7105Z" fill="white"/>
<path d="M32.6692 29.5938C34.9171 25.6906 38.5893 23.5889 40.8527 24.8977C43.116 26.2064 43.1622 30.4406 40.8527 34.3438C38.5431 38.2469 34.9325 40.3486 32.6615 39.0322C30.3904 37.7157 30.4135 33.4969 32.6692 29.5938Z" fill="white"/>
<path d="M9.89023 39.0342C12.1621 37.7225 12.177 33.4951 9.92361 29.5921C7.67018 25.689 4.0017 23.5882 1.72982 24.8999C-0.542059 26.2116 -0.557017 30.439 1.69642 34.3421C3.94985 38.2451 7.61835 40.3459 9.89023 39.0342Z" fill="white"/>
<path d="M32.7 7.022C34.971 5.71325 38.6355 7.79186 40.8912 11.7181C43.1468 15.6444 43.1314 19.8477 40.8912 21.1565C38.6509 22.4652 34.9556 20.3866 32.7 16.4604C30.4443 12.5342 30.4289 8.33075 32.7 7.022Z" fill="white"/>
</svg>
