<svg width="56" height="56" viewBox="0 0 56 56" fill="none" xmlns="http://www.w3.org/2000/svg">
<path d="M36.5371 17.9844H19.4627C19.0705 17.9844 18.6943 18.1402 18.417 18.4175C18.1397 18.6948 17.9839 19.0709 17.9839 19.4631V36.5377C17.9839 36.9298 18.1397 37.306 18.417 37.5833C18.6943 37.8606 19.0705 38.0164 19.4627 38.0164H36.5371C36.9294 38.0164 37.3055 37.8606 37.5828 37.5833C37.8602 37.306 38.016 36.9298 38.016 36.5377V19.4631C38.016 19.0709 37.8602 18.6948 37.5828 18.4175C37.3055 18.1402 36.9294 17.9844 36.5371 17.9844ZM23.9546 35.0492H20.9427V25.4825H23.9546V35.0492ZM22.4466 24.1568C22.105 24.1548 21.7715 24.0517 21.4884 23.8605C21.2053 23.6693 20.9852 23.3985 20.8559 23.0823C20.7266 22.766 20.6938 22.4186 20.7617 22.0838C20.8297 21.749 20.9952 21.4418 21.2376 21.201C21.4799 20.9602 21.7882 20.7966 22.1234 20.7309C22.4586 20.665 22.8059 20.7001 23.1212 20.8314C23.4366 20.9628 23.706 21.1847 23.8954 21.4689C24.0848 21.7533 24.1857 22.0874 24.1855 22.429C24.1887 22.6577 24.1459 22.8848 24.0595 23.0965C23.973 23.3083 23.8449 23.5006 23.6827 23.6618C23.5204 23.8231 23.3273 23.95 23.1149 24.035C22.9026 24.12 22.6752 24.1614 22.4466 24.1568ZM35.0557 35.0575H32.0452V29.8311C32.0452 28.2898 31.3901 27.814 30.5443 27.814C29.6511 27.814 28.7747 28.4873 28.7747 29.87V35.0575H25.763V25.4895H28.6593V26.8151H28.6982C28.989 26.2267 30.0072 25.2209 31.5612 25.2209C33.2416 25.2209 35.057 26.2184 35.057 29.1398L35.0557 35.0575Z" fill="white"/>
</svg>
