<svg width="33" height="33" viewBox="0 0 33 33" fill="none" xmlns="http://www.w3.org/2000/svg">
<path d="M10.9095 0.957475C14.2574 -0.238067 17.9027 -0.316091 21.2987 0.735115C23.4865 1.43717 25.5058 2.58336 27.2302 4.10192C28.9546 5.62048 30.3469 7.4787 31.3199 9.56023C31.9229 10.7225 32.2953 11.9905 32.4163 13.2942C29.9202 11.9357 27.2787 10.8631 24.542 10.097C20.2099 8.56348 15.6786 7.45172 11.5765 5.30486C10.6258 4.72981 9.40671 4.14708 9.14602 2.95864C9.04635 1.93122 10.1274 1.35618 10.9095 0.957475Z" fill="#FFD83D"/>
<path d="M0.926673 10.9554C1.86514 8.32496 3.47166 5.9839 5.58842 4.16209C6.097 8.66252 8.0531 12.8761 11.1625 16.1692C13.0432 18.1375 15.3044 19.7029 17.8087 20.7706C20.313 21.8382 23.0081 22.3856 25.7304 22.3797C27.8833 22.3315 30.0246 22.0514 32.1173 21.544C30.0395 29.0426 21.8201 34.0187 14.2065 32.8226C11.784 32.4786 9.46806 31.6011 7.42583 30.2534C5.38361 28.9057 3.66601 27.1215 2.39701 25.0295C1.12801 22.9375 0.339252 20.5898 0.0876384 18.156C-0.163975 15.7221 0.127835 13.2627 0.942023 10.9554H0.926673Z" fill="#FFD83D"/>
<path d="M24.5422 10.0972C27.2789 10.8634 29.9204 11.9359 32.4166 13.2945L32.5852 13.3788C32.8802 15.0969 32.9113 16.8499 32.6772 18.5773C31.4824 17.9581 30.3739 17.1848 29.3803 16.2771C27.3561 14.5979 25.2936 12.6734 24.5422 10.0665" fill="#FF6F03"/>
</svg>
