<svg width="56" height="56" viewBox="0 0 56 56" fill="none" xmlns="http://www.w3.org/2000/svg">
<path d="M37.8497 33.4282C34.2935 31.7067 33.7268 29.0489 33.7016 28.8517C33.6711 28.6129 33.6365 28.4252 33.8999 28.1823C34.1539 27.9476 35.281 27.25 35.5937 27.0317C36.1106 26.6703 36.3382 26.3095 36.1704 25.866C36.0531 25.5591 35.7674 25.4435 35.4664 25.4435C35.3714 25.4438 35.2768 25.4544 35.1842 25.4752C34.6162 25.5985 34.0648 25.883 33.7455 25.9598C33.7072 25.9697 33.6678 25.9751 33.6283 25.9757C33.4581 25.9757 33.3935 25.9 33.41 25.6952C33.4499 25.0744 33.5344 23.863 33.4363 22.7311C33.302 21.174 32.7998 20.4025 32.2043 19.7201C31.9162 19.3893 30.5785 17.9676 27.9969 17.9676C25.4154 17.9676 24.0795 19.3893 23.7931 19.716C23.1959 20.3983 22.6942 21.1699 22.561 22.727C22.463 23.8588 22.551 25.0698 22.5874 25.6911C22.5992 25.8859 22.5394 25.9716 22.3692 25.9716C22.3296 25.9709 22.2901 25.9656 22.2518 25.9558C21.9332 25.8789 21.3817 25.5943 20.8138 25.4711C20.7212 25.4503 20.6265 25.4397 20.5316 25.4394C20.2294 25.4394 19.9448 25.5567 19.8275 25.8619C19.6597 26.3054 19.8862 26.6663 20.4048 27.0276C20.7175 27.2459 21.8446 27.9429 22.0986 28.1782C22.3615 28.4211 22.3275 28.6088 22.297 28.8476C22.2717 29.0477 21.7044 31.7055 18.1489 33.4241C17.9406 33.5249 17.5863 33.7385 18.2111 34.0835C19.1921 34.6256 19.8451 34.5675 20.3526 34.8943C20.7833 35.1719 20.5287 35.7703 20.8419 35.9862C21.2268 36.2519 22.3644 35.9674 23.8342 36.4526C25.0663 36.8586 25.815 38.0057 27.9999 38.0057C30.1848 38.0057 30.9552 36.8534 32.1656 36.4526C33.6324 35.9674 34.7723 36.2519 35.1578 35.9862C35.4705 35.7703 35.2164 35.1719 35.6471 34.8943C36.1546 34.5675 36.8071 34.6256 37.7886 34.0835C38.4123 33.7426 38.0579 33.529 37.8497 33.4282Z" fill="white"/>
<path d="M39.3997 33.2332C39.2401 32.7991 38.9361 32.5667 38.59 32.3743C38.5248 32.3361 38.465 32.3056 38.414 32.2821C38.3107 32.2288 38.2051 32.1772 38.1 32.1226C37.0211 31.5505 36.1786 30.8289 35.5942 29.9735C35.4282 29.7326 35.2844 29.4774 35.1642 29.2107C35.1143 29.0682 35.1166 28.9872 35.1524 28.9132C35.1879 28.8563 35.2348 28.8073 35.2903 28.7695C35.4757 28.6469 35.667 28.5225 35.7966 28.4386C36.0278 28.289 36.2108 28.1705 36.3288 28.0866C36.7717 27.7768 37.0815 27.4476 37.2752 27.0797C37.4102 26.8256 37.489 26.5453 37.5061 26.2581C37.5232 25.9707 37.4782 25.683 37.3743 25.4147C37.081 24.6426 36.3517 24.1633 35.4681 24.1633C35.2817 24.1631 35.0959 24.1827 34.9136 24.2219C34.865 24.2325 34.8162 24.2436 34.7687 24.2559C34.7769 23.7278 34.7652 23.1705 34.7183 22.6219C34.5516 20.6933 33.8763 19.6825 33.1723 18.8763C32.7214 18.3712 32.1903 17.9438 31.6005 17.6114C30.532 17.0012 29.3205 16.6914 27.9998 16.6914C26.6791 16.6914 25.4734 17.0012 24.4038 17.6114C23.8125 17.9439 23.2804 18.3721 22.8291 18.8787C22.125 19.6848 21.4497 20.6975 21.2831 22.6242C21.2362 23.1729 21.2244 23.7331 21.2321 24.2582C21.1845 24.2459 21.1364 24.2348 21.0878 24.2243C20.9055 24.185 20.7196 24.1653 20.5332 24.1655C19.6491 24.1655 18.9186 24.6449 18.6264 25.417C18.522 25.6855 18.4766 25.9733 18.4933 26.261C18.51 26.5486 18.5884 26.8292 18.7233 27.0839C18.9175 27.4518 19.2272 27.7809 19.6702 28.0907C19.7876 28.1728 19.9712 28.2913 20.2023 28.4427C20.3274 28.5237 20.5098 28.6422 20.6888 28.7607C20.7513 28.8012 20.8046 28.8546 20.8448 28.9174C20.8823 28.9943 20.8835 29.0769 20.8278 29.2295C20.7092 29.4905 20.5676 29.7404 20.4048 29.9764C19.8333 30.8124 19.0154 31.5212 17.9711 32.0886C17.4178 32.3819 16.8428 32.5779 16.5999 33.2379C16.4169 33.736 16.5366 34.3028 17.0018 34.7804C17.1726 34.9586 17.3706 35.1086 17.5886 35.2246C18.042 35.4737 18.5241 35.6666 19.0243 35.799C19.1274 35.8255 19.2254 35.8694 19.3141 35.9286C19.4836 36.077 19.4596 36.3006 19.6854 36.628C19.7989 36.7972 19.9429 36.9436 20.1103 37.0598C20.5843 37.3871 21.1171 37.4077 21.6814 37.4294C22.1913 37.4488 22.7693 37.4711 23.4293 37.6887C23.7027 37.7791 23.9867 37.9539 24.3158 38.1581C25.1061 38.644 26.188 39.3087 27.9986 39.3087C29.8092 39.3087 30.8987 38.6404 31.6949 38.1528C32.0217 37.9522 32.304 37.7791 32.5697 37.6911C33.2297 37.4728 33.8076 37.4511 34.3175 37.4317C34.8819 37.4101 35.4147 37.3895 35.8888 37.0622C36.0869 36.9239 36.252 36.7436 36.3722 36.5341C36.5347 36.2578 36.5306 36.0647 36.6831 35.9298C36.7663 35.8733 36.8583 35.8314 36.9554 35.8054C37.4624 35.6727 37.9511 35.478 38.4105 35.2257C38.6419 35.1015 38.8503 34.9384 39.0265 34.7434L39.0324 34.7364C39.4689 34.2693 39.5786 33.719 39.3997 33.2332ZM37.7903 34.098C36.8087 34.6402 36.1563 34.5821 35.6488 34.9089C35.2175 35.1864 35.4728 35.7848 35.1594 36.0007C34.7745 36.2665 33.6369 35.982 32.1672 36.4672C30.9551 36.8679 30.1817 38.0202 28.0015 38.0202C25.8213 38.0202 25.0662 36.8703 23.8341 36.4643C22.3673 35.9791 21.2273 36.2636 20.8419 35.9978C20.5291 35.7819 20.7832 35.1835 20.3526 34.906C19.8445 34.5792 19.192 34.6373 18.2111 34.098C17.5862 33.753 17.9406 33.5395 18.1489 33.4385C21.7044 31.7172 22.2717 29.0594 22.297 28.8622C22.3275 28.6234 22.3614 28.4356 22.0986 28.1928C21.8446 27.958 20.7175 27.2605 20.4048 27.0422C19.8873 26.6808 19.6597 26.32 19.8275 25.8764C19.9447 25.5696 20.2311 25.454 20.5315 25.454C20.6265 25.4543 20.7211 25.4649 20.8137 25.4856C21.3817 25.6088 21.9332 25.8935 22.2517 25.9703C22.2901 25.9802 22.3295 25.9854 22.3691 25.9862C22.5393 25.9862 22.5991 25.9005 22.5873 25.7057C22.551 25.0844 22.463 23.8733 22.5609 22.7416C22.6953 21.1845 23.1969 20.4129 23.7931 19.7306C24.0794 19.4026 25.4247 17.981 27.9974 17.981C30.5702 17.981 31.9191 19.3967 32.2053 19.7235C32.802 20.4059 33.3043 21.1774 33.4374 22.7346C33.5355 23.8663 33.451 25.0779 33.4111 25.6986C33.3975 25.9034 33.4592 25.9791 33.6294 25.9791C33.6689 25.9784 33.7083 25.9731 33.7466 25.9632C34.0659 25.8864 34.6173 25.6018 35.1853 25.4786C35.2779 25.4579 35.3725 25.4472 35.4675 25.4469C35.7697 25.4469 36.0542 25.5643 36.1715 25.8693C36.3393 26.313 36.1129 26.6737 35.5948 27.0352C35.2821 27.2535 34.155 27.9505 33.901 28.1857C33.6375 28.4286 33.6721 28.6164 33.7027 28.8552C33.7279 29.0553 34.2946 31.7131 37.8507 33.4315C38.0608 33.5366 38.4151 33.7501 37.7903 34.098Z" fill="white"/>
</svg>
