<svg width="56" height="56" viewBox="0 0 56 56" fill="none" xmlns="http://www.w3.org/2000/svg">
<path d="M37.0561 19.4355C35.3905 18.6477 33.6043 18.0672 31.7367 17.7348C31.7027 17.7284 31.6687 17.7444 31.6513 17.7765C31.4215 18.1976 31.167 18.7471 30.9889 19.1789C28.9802 18.869 26.9819 18.869 25.0144 19.1789C24.8361 18.7375 24.5725 18.1976 24.3418 17.7765C24.3242 17.7455 24.2902 17.7295 24.2563 17.7348C22.3897 18.0662 20.6036 18.6466 18.9369 19.4355C18.9225 19.442 18.91 19.4526 18.9019 19.4665C15.5139 24.684 14.5858 29.7734 15.0411 34.7996C15.0432 34.8242 15.0565 34.8477 15.0751 34.8627C17.3104 36.5548 19.4756 37.582 21.6007 38.263C21.6347 38.2737 21.6707 38.2609 21.6924 38.232C22.195 37.5244 22.6431 36.7783 23.0273 35.9936C23.05 35.9477 23.0284 35.8932 22.982 35.875C22.2713 35.597 21.5945 35.2581 20.9435 34.8733C20.892 34.8423 20.8879 34.7665 20.9353 34.7301C21.0722 34.6243 21.2093 34.5142 21.3401 34.403C21.3638 34.3827 21.3967 34.3784 21.4245 34.3913C25.7014 36.4041 30.3317 36.4041 34.5581 34.3913C34.5859 34.3773 34.6189 34.3816 34.6436 34.4019C34.7745 34.5131 34.9115 34.6243 35.0495 34.7301C35.0968 34.7665 35.0938 34.8423 35.0422 34.8733C34.3912 35.2656 33.7145 35.597 33.0027 35.8739C32.9563 35.8921 32.9357 35.9477 32.9584 35.9936C33.3509 36.7771 33.7989 37.5232 34.2923 38.2309C34.3129 38.2609 34.35 38.2737 34.3841 38.263C36.5194 37.582 38.6847 36.5548 40.9199 34.8627C40.9395 34.8477 40.9518 34.8253 40.9539 34.8007C41.4989 28.9898 40.0413 23.9422 37.0901 19.4675C37.0829 19.4526 37.0705 19.442 37.0561 19.4355ZM23.666 31.7392C22.3784 31.7392 21.3174 30.5205 21.3174 29.024C21.3174 27.5275 22.3578 26.3089 23.666 26.3089C24.9845 26.3089 26.0352 27.5382 26.0146 29.024C26.0146 30.5205 24.9742 31.7392 23.666 31.7392ZM32.3496 31.7392C31.062 31.7392 30.001 30.5205 30.001 29.024C30.001 27.5275 31.0414 26.3089 32.3496 26.3089C33.6681 26.3089 34.7188 27.5382 34.6982 29.024C34.6982 30.5205 33.6681 31.7392 32.3496 31.7392Z" fill="white"/>
</svg>
