<svg width="56" height="56" viewBox="0 0 56 56" fill="none" xmlns="http://www.w3.org/2000/svg">
<path d="M40.4228 28.1965C40.4228 26.6901 39.2003 25.4674 37.6938 25.4674C36.9515 25.4674 36.2966 25.7513 35.8163 26.2316C33.9605 24.8998 31.3843 24.0266 28.5461 23.9174L29.7905 18.0881L33.8295 18.9396C33.8732 19.9657 34.7247 20.7954 35.7726 20.7954C36.8424 20.7954 37.7156 19.922 37.7156 18.8523C37.7156 17.7825 36.8424 16.9092 35.7726 16.9092C35.0085 16.9092 34.3535 17.3458 34.0478 18.0008L29.5285 17.0402C29.3976 17.0183 29.2665 17.0402 29.1574 17.1057C29.0482 17.1712 28.9827 17.2803 28.939 17.4113L27.5636 23.9174C24.6599 24.0047 22.0618 24.8562 20.1843 26.2316C19.704 25.7731 19.0272 25.4674 18.3067 25.4674C16.8003 25.4674 15.5776 26.6901 15.5776 28.1965C15.5776 29.31 16.2326 30.2487 17.1932 30.6854C17.1496 30.9474 17.1277 31.2312 17.1277 31.5151C17.1277 35.7069 21.9963 39.0908 28.0221 39.0908C34.0478 39.0908 38.9164 35.7069 38.9164 31.5151C38.9164 31.2312 38.8946 30.9692 38.8509 30.7073C39.7461 30.2706 40.4228 29.31 40.4228 28.1965ZM21.7562 30.1396C21.7562 29.0698 22.6295 28.1965 23.6993 28.1965C24.7691 28.1965 25.6424 29.0698 25.6424 30.1396C25.6424 31.2094 24.7691 32.0826 23.6993 32.0826C22.6295 32.0826 21.7562 31.2094 21.7562 30.1396ZM32.6069 35.2702C31.2751 36.602 28.7425 36.6893 28.0003 36.6893C27.258 36.6893 24.7035 36.5802 23.3936 35.2702C23.1971 35.0737 23.1971 34.7463 23.3936 34.5497C23.5901 34.3532 23.9176 34.3532 24.1141 34.5497C24.9437 35.3793 26.734 35.685 28.0221 35.685C29.3102 35.685 31.0786 35.3793 31.9301 34.5497C32.1265 34.3532 32.454 34.3532 32.6505 34.5497C32.8034 34.768 32.8034 35.0737 32.6069 35.2702ZM32.2576 32.0826C31.1878 32.0826 30.3145 31.2094 30.3145 30.1396C30.3145 29.0698 31.1878 28.1965 32.2576 28.1965C33.3274 28.1965 34.2007 29.0698 34.2007 30.1396C34.2007 31.2094 33.3274 32.0826 32.2576 32.0826Z" fill="white"/>
</svg>
