<svg width="56" height="56" viewBox="0 0 56 56" fill="none" xmlns="http://www.w3.org/2000/svg">
<path d="M27.9954 19.0398C30.915 19.0398 31.2578 19.0528 32.4117 19.1049C33.479 19.1526 34.0559 19.3306 34.442 19.4824C34.9539 19.6819 35.3183 19.9162 35.7001 20.2979C36.0818 20.6797 36.3205 21.0441 36.5157 21.556C36.6632 21.9421 36.8454 22.5191 36.8931 23.5864C36.9452 24.7403 36.9582 25.083 36.9582 28.0027C36.9582 30.9223 36.9452 31.265 36.8931 32.4189C36.8454 33.4862 36.6675 34.0632 36.5157 34.4493C36.3161 34.9612 36.0818 35.3256 35.7001 35.7074C35.3183 36.0891 34.9539 36.3277 34.442 36.523C34.0559 36.6705 33.479 36.8527 32.4117 36.9004C31.2578 36.9525 30.915 36.9655 27.9954 36.9655C25.0758 36.9655 24.7331 36.9525 23.5791 36.9004C22.5119 36.8527 21.9349 36.6748 21.5488 36.523C21.0369 36.3234 20.6725 36.0891 20.2907 35.7074C19.9089 35.3256 19.6703 34.9612 19.4751 34.4493C19.3276 34.0632 19.1454 33.4862 19.0977 32.4189C19.0456 31.265 19.0326 30.9223 19.0326 28.0027C19.0326 25.083 19.0456 24.7403 19.0977 23.5864C19.1454 22.5191 19.3232 21.9421 19.4751 21.556C19.6747 21.0441 19.9089 20.6797 20.2907 20.2979C20.6725 19.9162 21.0369 19.6776 21.5488 19.4824C21.9349 19.3348 22.5119 19.1526 23.5791 19.1049C24.7331 19.0486 25.0801 19.0398 27.9954 19.0398ZM27.9954 17.0703C25.0281 17.0703 24.6549 17.0833 23.488 17.1354C22.3253 17.1874 21.5314 17.374 20.8373 17.643C20.1171 17.9206 19.5098 18.298 18.9025 18.9054C18.2951 19.5128 17.922 20.1245 17.64 20.8402C17.3711 21.5344 17.1845 22.3283 17.1325 23.4952C17.0804 24.6579 17.0674 25.031 17.0674 27.9983C17.0674 30.9657 17.0804 31.3388 17.1325 32.5057C17.1845 33.6684 17.3711 34.4623 17.64 35.1608C17.9177 35.8808 18.2951 36.4883 18.9025 37.0956C19.5098 37.7029 20.1215 38.076 20.8373 38.358C21.5314 38.627 22.3253 38.8135 23.4923 38.8656C24.6593 38.9176 25.0281 38.9306 27.9997 38.9306C30.9714 38.9306 31.3402 38.9176 32.5071 38.8656C33.6698 38.8135 34.4637 38.627 35.1622 38.358C35.8823 38.0804 36.4897 37.7029 37.097 37.0956C37.7043 36.4883 38.0775 35.8766 38.3595 35.1608C38.6285 34.4666 38.8149 33.6728 38.867 32.5057C38.9191 31.3388 38.9321 30.97 38.9321 27.9983C38.9321 25.0267 38.9191 24.6579 38.867 23.4909C38.8149 22.3283 38.6285 21.5344 38.3595 20.8359C38.0818 20.1157 37.7043 19.5084 37.097 18.9011C36.4897 18.2937 35.878 17.9206 35.1622 17.6386C34.4681 17.3697 33.6742 17.1831 32.5071 17.131C31.3358 17.0833 30.9627 17.0703 27.9954 17.0703Z" fill="white"/>
<path d="M27.9931 22.3867C24.8956 22.3867 22.3795 24.8985 22.3795 28.0004C22.3795 31.1021 24.8913 33.614 27.9931 33.614C31.095 33.614 33.6068 31.1021 33.6068 28.0004C33.6068 24.8985 31.095 22.3867 27.9931 22.3867ZM27.9931 31.6401C25.9802 31.6401 24.349 30.0089 24.349 27.996C24.349 25.983 25.9802 24.3519 27.9931 24.3519C30.006 24.3519 31.6373 25.983 31.6373 27.996C31.6373 30.0089 30.006 31.6401 27.9931 31.6401Z" fill="white"/>
<path d="M33.8298 23.4698C34.5533 23.4698 35.1399 22.8832 35.1399 22.1596C35.1399 21.4361 34.5533 20.8495 33.8298 20.8495C33.1062 20.8495 32.5196 21.4361 32.5196 22.1596C32.5196 22.8832 33.1062 23.4698 33.8298 23.4698Z" fill="white"/>
</svg>
