<svg width="56" height="56" viewBox="0 0 56 56" fill="none" xmlns="http://www.w3.org/2000/svg">
<path d="M23.9167 36.9136C32.1954 36.9136 36.7221 30.0536 36.7221 24.1082C36.7221 23.9122 36.7221 23.7162 36.7127 23.5296C37.5901 22.8949 38.3555 22.1016 38.9621 21.1962C38.1595 21.5509 37.2915 21.7936 36.3767 21.9056C37.31 21.3456 38.0195 20.4682 38.3555 19.4136C37.4875 19.9269 36.5261 20.3002 35.4995 20.5056C34.678 19.6282 33.5115 19.0869 32.2141 19.0869C29.7315 19.0869 27.7155 21.1029 27.7155 23.5856C27.7155 23.9402 27.7527 24.2856 27.8367 24.6122C24.094 24.4256 20.7808 22.6336 18.5595 19.9082C18.1768 20.5709 17.9528 21.3456 17.9528 22.1669C17.9528 23.7256 18.7461 25.1069 19.9595 25.9096C19.2221 25.8909 18.5315 25.6856 17.9248 25.3496C17.9248 25.3682 17.9248 25.3869 17.9248 25.4056C17.9248 27.5896 19.474 29.4002 21.5367 29.8202C21.1634 29.9229 20.7621 29.9789 20.3514 29.9789C20.0621 29.9789 19.7821 29.9509 19.5021 29.8949C20.0715 31.6869 21.7328 32.9842 23.7021 33.0216C22.1621 34.2256 20.2208 34.9443 18.1114 34.9443C17.7474 34.9443 17.3928 34.9256 17.0381 34.8789C19.0075 36.1669 21.378 36.9136 23.9167 36.9136Z" fill="white"/>
</svg>
