<svg width="31" height="40" viewBox="0 0 31 40" fill="none" xmlns="http://www.w3.org/2000/svg">
<path d="M30.075 16.0274C30.7007 11.8277 27.5037 9.56503 23.1326 8.06514L24.5554 2.37411L21.1271 1.51703L19.7472 7.05378L16.9359 6.42811L18.3244 0.857082L14.8961 0L13.4819 5.69102C12.7277 5.5196 11.9906 5.34819 11.2706 5.1682L6.49668 3.97686L5.5796 7.67088C5.5796 7.67088 8.15085 8.26227 8.09085 8.29655C8.57049 8.35256 9.00869 8.59546 9.31036 8.97254C9.61202 9.34962 9.75281 9.83045 9.70216 10.3107L8.08228 16.8159L5.81958 25.8924C5.77451 26.0545 5.69721 26.2059 5.5923 26.3375C5.48739 26.469 5.35703 26.5781 5.209 26.6581C5.06098 26.7381 4.89833 26.7874 4.73081 26.8031C4.56328 26.8188 4.3943 26.8006 4.23398 26.7495C4.23398 26.8009 1.71416 26.1238 1.71416 26.1238L0 30.0921L4.50825 31.2149C5.36533 31.4206 6.16242 31.6435 6.96808 31.8492L5.53675 37.6002L8.96507 38.4573L10.3878 32.7662C11.3306 33.0234 12.2477 33.2548 13.1391 33.4776L11.7249 39.1429L15.1532 40L16.5931 34.2575C22.4898 35.3718 26.9381 34.9261 28.7979 29.5865C30.3064 25.301 28.7294 22.8069 25.6182 21.1871C27.8809 20.6642 29.5865 19.1729 30.0407 16.1046L30.075 16.0274ZM22.1641 27.1181C21.0928 31.4035 13.859 29.0979 11.5106 28.5065L13.4048 20.8871C15.7532 21.4699 23.2783 22.6012 22.1641 27.1181ZM23.2355 15.976C22.2584 19.8929 16.2331 17.9044 14.279 17.4159L15.9931 10.4992C17.9559 10.9706 24.2554 11.8792 23.2355 15.9589V15.976Z" fill="white"/>
</svg>
