<svg width="259" height="114" viewBox="0 0 259 114" fill="none" xmlns="http://www.w3.org/2000/svg">
<rect x="26.7354" y="20.0516" width="205.529" height="60.1549" rx="6.66667" fill="white"/>
<g filter="url(#filter0_d_1_635)">
<path d="M225.581 20.0516H33.4192C29.7278 20.0516 26.7354 23.0441 26.7354 26.7355V73.5227C26.7354 77.2141 29.7278 80.2066 33.4192 80.2066H225.581C229.272 80.2066 232.265 77.2141 232.265 73.5227V26.7355C232.265 23.0441 229.272 20.0516 225.581 20.0516Z" fill="black"/>
</g>
<path d="M72.1534 49.0398C72.187 47.6669 72.5774 46.3265 73.2859 45.1501C73.9944 43.9738 74.9968 43.0019 76.1945 42.3304C75.3898 41.2716 74.3566 40.4082 73.1717 39.8044C71.9868 39.2005 70.6812 38.8718 69.3516 38.8429C66.4731 38.559 63.6811 40.4667 62.2135 40.4667C60.7175 40.4667 58.4592 38.8713 56.0264 38.9181C54.4813 38.95 52.9692 39.3706 51.6296 40.1411C50.29 40.9117 49.1661 42.0072 48.3617 43.3268C45.046 48.7375 47.5185 56.6903 50.6952 61.0691C52.2848 63.211 54.1414 65.6041 56.5713 65.5189C58.9489 65.4253 59.8361 64.0896 62.7088 64.0896C65.5476 64.0896 66.3864 65.5189 68.8661 65.4649C71.4211 65.4253 73.0264 63.3132 74.5593 61.1515C75.6941 59.6389 76.5735 57.9506 77.1625 56.1538C75.7118 55.6069 74.4589 54.6366 73.5666 53.3688C72.6741 52.101 72.1834 50.5943 72.1578 49.044L72.1534 49.0398Z" fill="white"/>
<path d="M67.4668 35.9661C68.1497 35.2036 68.6709 34.3107 68.9993 33.3412C69.3276 32.3718 69.4563 31.3459 69.3774 30.3254C67.2792 30.5222 65.3241 31.4758 63.8772 33.0081C63.1943 33.73 62.6676 34.5849 62.3301 35.5196C61.9927 36.4542 61.8515 37.4485 61.9157 38.4401C62.9654 38.4573 64.0061 38.2447 64.965 37.8173C65.9238 37.39 66.7779 36.7581 67.4668 35.9661Z" fill="white"/>
<path d="M100.685 60.3082H92.8784L91.0049 65.5245H87.7019L95.0941 46.2206H98.529L105.921 65.5245H102.559L100.685 60.3082ZM93.6888 57.8952H99.8704L96.8201 49.4299H96.7477L93.6888 57.8952Z" fill="white"/>
<path d="M121.884 58.4889C121.884 62.8606 119.401 65.6695 115.654 65.6695C114.721 65.7259 113.791 65.5262 112.963 65.0926C112.135 64.6588 111.442 64.0073 110.957 63.2084H110.886V70.1777H107.823V51.4544H110.79V53.7936H110.847C111.351 52.9989 112.056 52.3507 112.891 51.9143C113.725 51.4778 114.659 51.2685 115.6 51.3067C119.387 51.3067 121.884 54.13 121.884 58.4889ZM118.734 58.4889C118.734 55.6402 117.173 53.7681 114.79 53.7681C112.449 53.7681 110.873 55.68 110.873 58.4889C110.873 61.3277 112.447 63.2226 114.79 63.2226C117.173 63.2226 118.734 61.3631 118.734 58.4889Z" fill="white"/>
<path d="M138.31 58.4889C138.31 62.8606 135.826 65.6695 132.08 65.6695C131.147 65.7265 130.216 65.5273 129.388 65.0939C128.56 64.6604 127.866 64.0089 127.381 63.2099H127.31V70.179H124.258V51.4544H127.225V53.7936H127.281C127.786 52.9989 128.491 52.3507 129.326 51.9143C130.16 51.4778 131.094 51.2685 132.035 51.3067C135.816 51.3067 138.31 54.13 138.31 58.4889ZM135.16 58.4889C135.16 55.6402 133.599 53.7681 131.216 53.7681C128.875 53.7681 127.3 55.68 127.3 58.4889C127.3 61.3277 128.874 63.2226 131.216 63.2226C133.602 63.2226 135.163 61.3631 135.163 58.4889H135.16Z" fill="white"/>
<path d="M149.172 60.1483C149.399 62.0618 151.372 63.3193 154.066 63.3193C156.649 63.3193 158.507 62.0631 158.507 60.3387C158.507 58.8411 157.386 57.944 154.733 57.3294L152.08 56.7277C148.32 55.876 146.576 54.2139 146.576 51.5256C146.576 48.1957 149.654 45.909 154.024 45.909C158.352 45.909 161.319 48.1957 161.418 51.5256H158.324C158.139 49.5995 156.45 48.437 153.982 48.437C151.514 48.437 149.824 49.6137 149.824 51.3254C149.824 52.6895 150.903 53.4929 153.542 54.1074L155.797 54.6298C159.999 55.5665 161.742 57.1563 161.742 59.9794C161.742 63.5904 158.693 65.8515 153.84 65.8515C149.298 65.8515 146.233 63.643 146.033 60.1527L149.172 60.1483Z" fill="white"/>
<path d="M168.359 48.1247V51.4546H171.198V53.7413H168.359V61.4983C168.359 62.7032 168.927 63.2653 170.176 63.2653C170.513 63.2596 170.849 63.2374 171.183 63.1987V65.4697C170.621 65.5686 170.051 65.6132 169.48 65.603C166.458 65.603 165.279 64.5329 165.279 61.8047V53.7413H163.11V51.4546H165.28V48.1247H168.359Z" fill="white"/>
<path d="M172.838 58.4888C172.825 57.5504 172.998 56.6189 173.348 55.7483C173.698 54.8775 174.218 54.085 174.876 53.4168C175.535 52.7486 176.32 52.218 177.186 51.8558C178.052 51.4937 178.981 51.3072 179.919 51.3072C180.857 51.3072 181.786 51.4937 182.652 51.8558C183.518 52.218 184.303 52.7486 184.962 53.4168C185.62 54.085 186.14 54.8775 186.49 55.7483C186.84 56.6189 187.013 57.5504 187 58.4888C187 62.9273 184.26 65.6979 179.918 65.6979C175.576 65.6979 172.838 62.9273 172.838 58.4888ZM183.877 58.4888C183.877 55.4527 182.401 53.6627 179.918 53.6627C177.436 53.6627 175.96 55.4682 175.96 58.4888C175.96 61.5377 177.436 63.3148 179.918 63.3148C182.401 63.3148 183.877 61.5362 183.877 58.4888Z" fill="white"/>
<path d="M189.526 51.456H192.449V53.8506H192.52C192.743 53.0835 193.22 52.4148 193.873 51.9532C194.524 51.4916 195.313 51.2643 196.11 51.3084C196.464 51.3072 196.815 51.3433 197.161 51.4164V54.1131C196.713 53.9845 196.249 53.9257 195.784 53.9385C195.345 53.9195 194.905 53.9922 194.494 54.1516C194.083 54.3112 193.71 54.5543 193.398 54.8654C193.098 55.1647 192.87 55.5281 192.73 55.9283C192.59 56.3285 192.543 56.7551 192.592 57.1762V65.5222H189.526V51.456Z" fill="white"/>
<path d="M211.282 61.3895C210.871 63.9444 208.231 65.6961 204.856 65.6961C200.513 65.6961 197.818 62.9537 197.818 58.5537C197.818 54.1535 200.528 51.2778 204.727 51.2778C208.858 51.2778 211.454 53.952 211.454 58.2172V59.2107H200.921V59.3853C200.874 59.9084 200.944 60.4352 201.126 60.9277C201.308 61.4201 201.599 61.8659 201.973 62.2327C202.364 62.6135 202.829 62.9106 203.338 63.1058C203.848 63.3009 204.391 63.3903 204.936 63.3683C205.646 63.4408 206.36 63.2889 206.978 62.934C207.598 62.5789 208.089 62.0388 208.385 61.3895H211.282ZM200.921 57.191H208.385C208.41 56.7205 208.333 56.2499 208.159 55.8118C207.987 55.3735 207.721 54.9778 207.38 54.6517C207.028 54.3126 206.61 54.0468 206.154 53.8696C205.698 53.6925 205.212 53.6076 204.722 53.6198C203.723 53.608 202.759 53.9799 202.025 54.6588C201.676 54.9818 201.397 55.3734 201.205 55.8091C201.014 56.2448 200.916 56.7151 200.914 57.191H200.921Z" fill="white"/>
<path d="M93.304 30.9133C93.9337 30.8672 94.5659 30.9495 95.1628 31.1552C95.7597 31.3609 96.3084 31.6857 96.7758 32.1099C97.2089 32.5007 97.5404 32.991 97.742 33.5384C97.9435 34.0859 98.009 34.6741 97.9326 35.2524C97.9326 38.0429 96.2294 39.6525 93.304 39.6525H89.7556V30.9133H93.304ZM91.2786 38.412H93.1338C93.5831 38.4402 94.0336 38.3762 94.4573 38.2238C94.8811 38.0716 95.2693 37.8342 95.5978 37.5262C95.9019 37.2421 96.132 36.8881 96.268 36.4947C96.404 36.1013 96.4419 35.6807 96.3784 35.2694C96.4379 34.8596 96.397 34.4415 96.259 34.0511C96.121 33.6607 95.8902 33.3096 95.5864 33.0282C95.2586 32.723 94.8721 32.4876 94.4505 32.3361C94.0289 32.1845 93.5809 32.1201 93.1338 32.1468H91.2786V38.412Z" fill="white"/>
<path d="M99.6596 36.346C99.6095 35.7462 99.7393 35.145 100.033 34.6193C100.326 34.0937 100.769 33.6674 101.306 33.3951C101.876 33.0871 102.513 32.9259 103.161 32.9259C103.808 32.9259 104.445 33.0871 105.015 33.3951C105.552 33.6674 105.995 34.0937 106.289 34.6193C106.582 35.145 106.712 35.7462 106.661 36.346C106.713 36.9465 106.584 37.5487 106.291 38.0754C105.999 38.6021 105.555 39.0296 105.018 39.3026C104.448 39.6114 103.81 39.773 103.161 39.773C102.513 39.773 101.875 39.6114 101.305 39.3026C100.767 39.0297 100.324 38.6028 100.031 38.0763C99.7378 37.5497 99.6085 36.9479 99.6596 36.3474V36.346ZM105.156 36.346C105.156 34.9167 104.433 34.075 103.168 34.075C101.904 34.075 101.181 34.911 101.181 36.346C101.181 37.781 101.891 38.617 103.168 38.617C104.446 38.617 105.156 37.7825 105.156 36.346Z" fill="white"/>
<path d="M115.97 39.6483H114.45L112.916 34.7939H112.799L111.271 39.6483H109.766L107.719 33.0566H109.205L110.535 38.087H110.645L112.17 33.0566H113.576L115.101 38.087H115.218L116.541 33.0566H118.006L115.97 39.6483Z" fill="white"/>
<path d="M119.73 33.0593H121.141V34.1068H121.25C121.464 33.7153 121.788 33.3952 122.182 33.1864C122.576 32.9777 123.022 32.8895 123.466 32.933C123.82 32.9059 124.176 32.952 124.511 33.0685C124.846 33.185 125.154 33.3694 125.415 33.61C125.657 33.8315 125.84 34.1094 125.949 34.419C126.057 34.7286 126.087 35.0602 126.037 35.3843V39.651H124.569V35.7065C124.6 35.4895 124.58 35.2683 124.51 35.0605C124.441 34.8527 124.323 34.6642 124.167 34.51C124.011 34.3558 123.822 34.2404 123.613 34.1728C123.405 34.1052 123.183 34.0875 122.966 34.121C122.726 34.109 122.486 34.1447 122.26 34.226C122.033 34.3074 121.825 34.4329 121.648 34.5951C121.483 34.7446 121.356 34.931 121.277 35.1389C121.198 35.3469 121.17 35.5705 121.194 35.7916V39.6482H119.73V33.0593Z" fill="white"/>
<path d="M128.37 30.4833H129.835V39.6484H128.37V30.4833Z" fill="white"/>
<path d="M131.871 36.3477C131.821 35.7479 131.951 35.1467 132.245 34.621C132.538 34.0954 132.981 33.6691 133.518 33.3968C134.088 33.0888 134.725 32.9276 135.372 32.9276C136.02 32.9276 136.657 33.0888 137.227 33.3968C137.764 33.6691 138.207 34.0954 138.5 34.621C138.794 35.1467 138.924 35.7479 138.873 36.3477C138.925 36.9479 138.796 37.5498 138.503 38.0763C138.21 38.6027 137.767 39.0298 137.23 39.3028C136.66 39.6116 136.022 39.7732 135.373 39.7732C134.725 39.7732 134.087 39.6116 133.517 39.3028C132.979 39.0301 132.536 38.603 132.243 38.0765C131.95 37.5502 131.82 36.9481 131.871 36.3477ZM137.367 36.3477C137.367 34.9184 136.645 34.0767 135.38 34.0767C134.116 34.0767 133.393 34.9127 133.393 36.3477C133.393 37.7828 134.103 38.6187 135.38 38.6187C136.658 38.6187 137.367 37.7841 137.367 36.3477Z" fill="white"/>
<path d="M140.416 37.7832C140.416 36.5966 141.41 35.9124 143.177 35.8159L145.188 35.7123V35.1445C145.188 34.449 144.67 34.0558 143.668 34.0558C142.851 34.0558 142.283 34.3227 142.121 34.7883H140.702C140.851 33.6527 142.051 32.9303 143.735 32.9303C145.596 32.9303 146.646 33.7535 146.646 35.146V39.6497H145.242V38.7228H145.126C144.868 39.0658 144.53 39.3399 144.141 39.5205C143.752 39.701 143.324 39.7825 142.896 39.7576C142.277 39.8191 141.657 39.6408 141.166 39.2593C140.939 39.0855 140.754 38.8626 140.626 38.6077C140.497 38.3525 140.427 38.0718 140.422 37.786L140.416 37.7832ZM145.188 37.2154V36.6647L143.376 36.7682C142.354 36.8294 141.89 37.1374 141.89 37.7194C141.89 38.3012 142.469 38.6574 143.266 38.6574C143.731 38.7021 144.196 38.5742 144.572 38.2984C144.747 38.1727 144.892 38.0108 144.999 37.824C145.105 37.6371 145.17 37.4296 145.19 37.2154H145.188Z" fill="white"/>
<path d="M148.574 36.3496C148.521 35.9172 148.562 35.4785 148.693 35.0632C148.825 34.6479 149.044 34.2658 149.337 33.9427C149.629 33.6196 149.987 33.3632 150.387 33.1907C150.787 33.0182 151.22 32.9338 151.655 32.9431C152.102 32.9163 152.549 33.0094 152.948 33.2127C153.347 33.4161 153.685 33.7224 153.926 34.0999H154.041V30.4833H155.506V39.6484H154.102V38.6065H153.986C153.728 38.9815 153.378 39.2843 152.97 39.4855C152.561 39.6868 152.108 39.7801 151.654 39.7562C151.218 39.7662 150.785 39.6823 150.385 39.51C149.985 39.3378 149.626 39.0813 149.334 38.7581C149.041 38.4348 148.822 38.0523 148.691 37.6367C148.56 37.2211 148.52 36.7822 148.574 36.3496ZM150.087 36.3496C150.087 37.7477 150.829 38.5895 152.074 38.5895C152.359 38.5963 152.642 38.5414 152.904 38.4281C153.165 38.315 153.399 38.1464 153.589 37.9338C153.779 37.7214 153.921 37.4703 154.004 37.1977C154.088 36.9252 154.111 36.6377 154.072 36.3553C154.108 36.0732 154.082 35.7868 153.997 35.5154C153.913 35.244 153.77 34.994 153.581 34.7822C153.391 34.5704 153.158 34.4018 152.898 34.2878C152.637 34.1738 152.355 34.1169 152.071 34.1212C151.786 34.1137 151.504 34.1685 151.242 34.2817C150.981 34.3949 150.748 34.5638 150.558 34.7765C150.369 34.9893 150.229 35.2408 150.147 35.5135C150.065 35.7862 150.043 36.0735 150.084 36.3553L150.087 36.3496Z" fill="white"/>
<path d="M161.57 36.346C161.52 35.7462 161.649 35.145 161.943 34.6193C162.236 34.0937 162.679 33.6674 163.216 33.3951C163.786 33.0871 164.423 32.9259 165.071 32.9259C165.718 32.9259 166.356 33.0871 166.925 33.3951C167.462 33.6674 167.905 34.0937 168.199 34.6193C168.492 35.145 168.622 35.7462 168.572 36.346C168.623 36.9467 168.494 37.5489 168.201 38.0758C167.908 38.6025 167.464 39.0297 166.927 39.3026C166.356 39.6114 165.718 39.773 165.07 39.773C164.422 39.773 163.783 39.6114 163.213 39.3026C162.676 39.0296 162.233 38.6021 161.94 38.0754C161.647 37.5487 161.518 36.9465 161.57 36.346ZM167.066 36.346C167.066 34.9167 166.343 34.075 165.078 34.075C163.814 34.075 163.091 34.911 163.091 36.346C163.091 37.781 163.801 38.617 165.078 38.617C166.356 38.617 167.06 37.781 167.06 36.346H167.066Z" fill="white"/>
<path d="M170.537 33.0593H171.948V34.1068H172.057C172.271 33.7153 172.595 33.3952 172.989 33.1864C173.383 32.9777 173.829 32.8895 174.273 32.933C174.627 32.9059 174.983 32.952 175.318 33.0685C175.653 33.185 175.961 33.3694 176.222 33.61C176.464 33.8315 176.647 34.1094 176.756 34.419C176.864 34.7286 176.895 35.0602 176.844 35.3843V39.651H175.377V35.7065C175.409 35.4895 175.388 35.2683 175.319 35.0605C175.249 34.8527 175.131 34.6642 174.976 34.51C174.82 34.3558 174.63 34.2404 174.421 34.1728C174.213 34.1052 173.992 34.0875 173.775 34.121C173.535 34.109 173.294 34.1447 173.068 34.226C172.842 34.3074 172.634 34.4329 172.456 34.5951C172.292 34.7446 172.165 34.931 172.086 35.1389C172.007 35.3469 171.978 35.5705 172.002 35.7916V39.6482H170.537V33.0593Z" fill="white"/>
<path d="M185.122 31.4134V33.084H186.73V34.1798H185.122V37.5694C185.122 38.2591 185.443 38.5629 186.172 38.5629C186.359 38.5624 186.546 38.5526 186.731 38.533V39.6161C186.468 39.6579 186.202 39.6803 185.935 39.6828C184.306 39.6828 183.657 39.1732 183.657 37.9029V34.1798H182.479V33.084H183.657V31.4134H185.122Z" fill="white"/>
<path d="M188.725 30.4833H190.177V34.1212H190.294C190.516 33.7261 190.848 33.4042 191.25 33.1946C191.652 32.9849 192.106 32.8966 192.558 32.9402C192.909 32.9199 193.262 32.9708 193.593 33.0901C193.924 33.2094 194.228 33.3945 194.486 33.6343C194.726 33.8557 194.907 34.1317 195.017 34.4387C195.126 34.7457 195.159 35.0746 195.114 35.3972V39.6554H193.653V35.7138C193.682 35.4984 193.66 35.2795 193.59 35.0738C193.521 34.8681 193.405 34.6811 193.252 34.5273C193.098 34.3735 192.912 34.2569 192.706 34.1865C192.501 34.116 192.282 34.0937 192.067 34.1212C191.819 34.1011 191.571 34.1305 191.335 34.2078C191.099 34.285 190.881 34.4086 190.694 34.5711C190.52 34.7207 190.384 34.9096 190.298 35.1221C190.211 35.3346 190.177 35.5647 190.197 35.7932V39.6427H188.725V30.4833Z" fill="white"/>
<path d="M203.664 37.8684C203.418 38.5004 202.969 39.0319 202.386 39.3778C201.803 39.7237 201.121 39.8639 200.448 39.776C199.97 39.7924 199.493 39.713 199.047 39.5423C198.599 39.3717 198.192 39.1133 197.846 38.7825C197.525 38.4757 197.283 38.0965 197.139 37.6766C196.995 37.2569 196.954 36.8086 197.019 36.3695C196.957 35.9307 197 35.4835 197.144 35.0642C197.286 34.6449 197.527 34.2654 197.844 33.9565C198.188 33.6221 198.594 33.359 199.041 33.1823C199.485 33.0057 199.961 32.9191 200.441 32.9275C200.887 32.8885 201.335 32.9477 201.756 33.1011C202.175 33.2544 202.558 33.4981 202.874 33.815C203.19 34.1319 203.432 34.5142 203.584 34.935C203.736 35.3558 203.793 35.8047 203.753 36.2503V36.7045H198.509V36.7768C198.487 37.0238 198.524 37.2722 198.614 37.5032C198.703 37.7343 198.845 37.9416 199.027 38.1097C199.423 38.4768 199.946 38.6764 200.486 38.666C200.825 38.7098 201.171 38.6581 201.482 38.517C201.794 38.3759 202.062 38.1508 202.252 37.8669L203.664 37.8684ZM198.511 35.7393H202.261C202.277 35.5132 202.242 35.2863 202.157 35.076C202.072 34.8657 201.941 34.6775 201.773 34.5257C201.407 34.1941 200.925 34.017 200.432 34.0318C199.931 34.0221 199.445 34.198 199.066 34.5257C198.89 34.6759 198.751 34.8621 198.655 35.0716C198.559 35.2811 198.509 35.5089 198.511 35.7393Z" fill="white"/>
<defs>
<filter id="filter0_d_1_635" x="-0.000162543" y="4.78068e-07" width="259" height="113.626" filterUnits="userSpaceOnUse" color-interpolation-filters="sRGB">
<feFlood flood-opacity="0" result="BackgroundImageFix"/>
<feColorMatrix in="SourceAlpha" type="matrix" values="0 0 0 0 0 0 0 0 0 0 0 0 0 0 0 0 0 0 127 0" result="hardAlpha"/>
<feOffset dy="6.66667"/>
<feGaussianBlur stdDeviation="13.3333"/>
<feColorMatrix type="matrix" values="0 0 0 0 0.337255 0 0 0 0 0.486275 0 0 0 0 0.678431 0 0 0 0.16 0"/>
<feBlend mode="normal" in2="BackgroundImageFix" result="effect1_dropShadow_1_635"/>
<feBlend mode="normal" in="SourceGraphic" in2="effect1_dropShadow_1_635" result="shape"/>
</filter>
</defs>
</svg>
